<?xml version="1.0" encoding="utf-8"?>
<!-- Generator: Adobe Illustrator 16.0.0, SVG Export Plug-In . SVG Version: 6.00 Build 0)  -->
<!DOCTYPE svg PUBLIC "-//W3C//DTD SVG 1.1//EN" "http://www.w3.org/Graphics/SVG/1.1/DTD/svg11.dtd">
<svg version="1.1" id="Layer_1" xmlns="http://www.w3.org/2000/svg" xmlns:xlink="http://www.w3.org/1999/xlink" x="0px" y="0px"
	 width="580px" height="120px" viewBox="0 0 580 120" enable-background="new 0 0 580 120" xml:space="preserve">
<g>
	<path fill-rule="evenodd" clip-rule="evenodd" fill="#6C5F62" d="M46,1c4.641,1.759,9.112,3.826,12.953,7.055
		c1.371,1.152,2.494,2.438,1.128,4.221c-1.31,1.708-2.914,1.26-4.386,0.167c-2.681-1.991-5.415-3.904-8.586-5.024
		c-6.036-2.131-9.761-0.375-11.441,5.782c-1.836,6.728-1.117,13.526,0.181,20.288c0.327,1.703,1.125,2.089,2.76,1.892
		c3.967-0.478,7.949-0.915,11.937-1.097c2.224-0.102,3.14-1.608,4.271-3.002c6.114-7.527,12.766-14.514,20.662-20.203
		c4.748-3.422,9.765-6.326,15.649-7.43c7.846-1.47,13.817,2.273,15.833,9.996c1.338,5.125,0.902,10.242,0.004,15.362
		c-0.318,1.812-1.103,3.303-3.221,3.001c-2.113-0.301-2.407-1.912-2.244-3.767c0.263-2.979,0.645-5.971,0.584-8.949
		c-0.191-9.368-5.053-12.548-13.817-9.082c-2.153,0.852-4.243,1.954-6.2,3.197C73.7,18.721,66.797,25.64,60.115,33.566
		c8.442,0.845,16.461,1.451,24.423,2.493c9.927,1.3,19.604,3.722,28.793,7.809c2.274,1.012,4.561,2.077,6.645,3.423
		c6.258,4.043,12.73,8.411,11.816,17.018c-0.891,8.394-7.868,11.77-14.616,14.932c-1.926,0.902-4.012,1.616-5.033-0.985
		c-0.897-2.286,1.026-3.197,2.72-4.029c1.641-0.807,3.34-1.521,4.893-2.473c8.501-5.212,8.84-11.157,1.02-17.206
		c-3.718-2.875-7.887-4.929-12.253-6.607c-16.245-6.245-33.178-8.24-50.449-8.25c-2.055-0.001-3.536,0.582-4.551,2.355
		c-0.247,0.432-0.593,0.804-0.861,1.224c-11.644,18.2-11.344,11.263-1.967,30.237c5.779,11.692,13.307,22.286,22.699,31.451
		c3.473,3.389,7.203,6.459,11.589,8.588c7.829,3.799,12.937,1.011,14.029-7.707c0.901-7.187,0.067-14.279-1.561-21.303
		c-2.263-9.762-5.705-19.102-9.949-28.163c-0.901-1.924-2.413-4.169,0.502-5.52c2.562-1.188,3.423,1.056,4.298,2.888
		c6.205,12.993,10.782,26.489,12.38,40.866c0.423,3.801,0.381,7.63-0.147,11.461c-0.943,6.84-3.851,12.193-10.536,14.933
		c-2.333,0-4.667,0-7,0c-23.803-11.539-35.313-33.556-47.071-56.003c-3.222,4.998-5.005,9.978-6.703,14.916
		c-2.489,7.242-4.676,14.642-4.077,22.444c0.662,8.627,5.139,11.452,13.233,8.579c3.642-1.294,6.834-3.404,10.054-5.483
		c1.39-0.896,2.888-0.907,3.961,0.616c1.125,1.597,0.352,2.908-0.952,3.854c-1.747,1.269-3.557,2.489-5.467,3.485
		c-6.307,3.29-12.918,6.446-19.795,2.178c-6.775-4.207-6.767-11.41-6.333-18.34c0.817-13.066,5.867-24.837,11.696-36.305
		c1.132-2.227,1.589-4.12,0.545-6.548c-1.308-3.043-2.151-6.285-3.176-9.448c-0.477-1.471-0.83-2.824-3.008-2.317
		c-7.346,1.709-14.565,3.735-20.311,8.949c-3.91,3.549-4.036,7.378-0.681,11.427c2.158,2.604,4.944,4.425,7.861,6.072
		c1.782,1.007,3.783,2.122,2.251,4.595c-1.538,2.485-3.496,1.022-5.208,0.082C8.331,70.738,3.912,66.619,1,61c0-2.333,0-4.667,0-7
		c2.867-5.483,7.295-9.28,12.841-11.855c4.218-1.959,8.563-3.592,13.138-4.462c2.72-0.518,3.905-1.456,3.203-4.606
		c-1.082-4.849-1.507-9.844-1.056-14.838C29.812,10.658,31.953,3.955,40,1C42,1,44,1,46,1z M48.109,39.913
		c-3.938,0.474-8.2-0.487-9.777,2.082c-1.245,2.027,0.857,5.666,2.679,8.822C43.481,47.022,45.59,43.782,48.109,39.913z"/>
	<path fill-rule="evenodd" clip-rule="evenodd" fill="#6C5F62" d="M581,107c-4.891,2.051-5.987,1.305-5.995-4.332
		c-0.028-21.329-0.012-42.658-0.012-63.986c0-1.588,0-3.176,0-6.195c-7.959,11.376-15.073,21.546-22.19,31.713
		c-2.864,4.093-5.736,8.181-8.607,12.268c-3.66,5.21-5.111,5.261-8.664,0.141c-9.018-12.997-17.991-26.023-26.992-39.032
		c-0.9-1.301-1.862-2.561-3.532-4.848c0,7.478,0,13.732,0,19.987c0,16.163,0,32.326,0,48.489c0,1-0.012,2-0.002,2.999
		c0.021,1.998-0.382,3.816-2.797,3.932c-2.724,0.131-3.221-1.758-3.22-3.998c0.011-26.327,0.012-52.655-0.003-78.982
		c-0.001-1.956,0.228-3.766,2.5-4.289c2.538-0.584,4.008,0.957,5.298,2.854c9.929,14.593,19.874,29.174,29.818,43.756
		c3.304,4.845,3.322,4.85,6.604,0.047c9.863-14.436,19.777-28.837,29.525-43.35c2.282-3.397,4.732-4.411,8.27-2.172
		C581,50.333,581,78.667,581,107z"/>
	<path fill-rule="evenodd" clip-rule="evenodd" fill="#6C5F62" d="M413.725,109.369c-25.34-0.623-43.307-20.271-42.704-46.7
		c0.557-24.468,20.41-43.779,44.424-43.213c25.46,0.601,43.312,20.396,42.614,47.252
		C457.429,90.942,437.667,109.959,413.725,109.369z M451.33,64.553c-0.148-16.805-9.081-30.919-23.095-36.492
		c-25.706-10.224-51.089,8.817-50.348,37.77c0.552,21.586,16.778,37.997,37.167,37.591
		C436.159,102.999,451.525,86.535,451.33,64.553z"/>
	<path fill-rule="evenodd" clip-rule="evenodd" fill="#6C5F62" d="M255.607,105.015c-0.203,1.64-0.731,2.783-2.303,3.091
		c-2.232,0.438-3.452-0.838-4.237-2.651c-2.377-5.492-5.033-10.894-6.949-16.545c-1.566-4.62-3.905-6.21-8.954-6.045
		c-13.644,0.446-27.312,0.24-40.969,0.083c-2.922-0.033-4.418,0.841-5.539,3.579c-2.518,6.15-5.433,12.138-8.148,18.207
		c-1.018,2.274-2.261,4.552-5.136,3.062c-2.734-1.416-1.227-3.753-0.351-5.661c11.862-25.837,23.76-51.657,35.635-77.487
		c1.073-2.334,2.167-4.626,5.258-4.543c2.802,0.074,3.932,2.158,4.929,4.33c11.864,25.835,23.727,51.671,35.577,77.513
		C254.903,102.997,255.259,104.105,255.607,105.015z M213.637,27.533c-7.526,16.871-14.676,32.896-22.06,49.446
		c14.272,0,27.747-0.039,41.22,0.032c2.695,0.015,2.64-1.094,1.766-3.028C227.723,58.843,220.911,43.69,213.637,27.533z"/>
	<path fill-rule="evenodd" clip-rule="evenodd" fill="#6C5F62" d="M313.007,67.501c0,11.659,0.021,23.318-0.018,34.978
		c-0.008,2.4,0.651,5.668-3.108,5.581c-3.801-0.089-2.853-3.447-2.857-5.764c-0.05-23.484-0.123-46.97,0.062-70.453
		c0.03-3.88-0.907-5.129-4.892-4.933c-6.979,0.345-13.987,0.074-20.982,0.108c-2.306,0.012-4.772-0.176-4.782-3.028
		c-0.011-2.883,2.468-3.013,4.768-3.01c19.321,0.023,38.642,0.018,57.962,0.007c2.263-0.001,4.743,0.023,4.717,3.026
		c-0.025,2.985-2.525,2.998-4.771,2.995c-7.329-0.007-14.662,0.15-21.983-0.072c-3.197-0.098-4.254,0.735-4.197,4.09
		C313.131,43.182,313.007,55.343,313.007,67.501z"/>
	<path fill-rule="evenodd" clip-rule="evenodd" fill="#6C5F62" d="M74.777,61.125c-0.15,4.249-4.086,7.855-8.248,7.559
		c-4.016-0.286-7.425-4.036-7.299-8.027c0.132-4.205,4.087-7.813,8.259-7.535C71.499,53.39,74.918,57.144,74.777,61.125z"/>
	<path fill-rule="evenodd" clip-rule="evenodd" fill="#6C5F62" d="M48.109,39.913c-2.519,3.869-4.628,7.109-7.098,10.904"/>
</g>
</svg>
